<mxfile host="app.diagrams.net" modified="2024-04-14T19:46:35.307Z" agent="Mozilla/5.0 (Windows NT 10.0; Win64; x64) AppleWebKit/537.36 (KHTML, like Gecko) Chrome/121.0.0.0 Safari/537.36 OPR/107.0.0.0" etag="tTxGWZyxwtXNAfHZRZ5e" version="24.2.5" type="device">
  <diagram name="PÃ¡gina-1" id="bZImE8aY2IdPTt2sZ0VU">
    <mxGraphModel dx="2727" dy="926" grid="1" gridSize="10" guides="1" tooltips="1" connect="1" arrows="1" fold="1" page="1" pageScale="1" pageWidth="827" pageHeight="1169" math="0" shadow="0">
      <root>
        <mxCell id="0" />
        <mxCell id="1" parent="0" />
        <mxCell id="LpNbH-FBe_Z-OM0DZD-P-34" style="edgeStyle=orthogonalEdgeStyle;rounded=0;orthogonalLoop=1;jettySize=auto;html=1;exitX=0;exitY=0.5;exitDx=0;exitDy=0;entryX=1;entryY=0.5;entryDx=0;entryDy=0;" parent="1" source="LpNbH-FBe_Z-OM0DZD-P-1" target="LpNbH-FBe_Z-OM0DZD-P-8" edge="1">
          <mxGeometry relative="1" as="geometry" />
        </mxCell>
        <mxCell id="LpNbH-FBe_Z-OM0DZD-P-35" style="edgeStyle=orthogonalEdgeStyle;rounded=0;orthogonalLoop=1;jettySize=auto;html=1;exitX=0;exitY=0.5;exitDx=0;exitDy=0;entryX=1;entryY=0.5;entryDx=0;entryDy=0;" parent="1" source="LpNbH-FBe_Z-OM0DZD-P-1" target="LpNbH-FBe_Z-OM0DZD-P-10" edge="1">
          <mxGeometry relative="1" as="geometry" />
        </mxCell>
        <mxCell id="LpNbH-FBe_Z-OM0DZD-P-38" style="edgeStyle=orthogonalEdgeStyle;rounded=0;orthogonalLoop=1;jettySize=auto;html=1;exitX=0;exitY=0.5;exitDx=0;exitDy=0;entryX=1;entryY=0.5;entryDx=0;entryDy=0;" parent="1" source="LpNbH-FBe_Z-OM0DZD-P-1" target="LpNbH-FBe_Z-OM0DZD-P-9" edge="1">
          <mxGeometry relative="1" as="geometry" />
        </mxCell>
        <mxCell id="LpNbH-FBe_Z-OM0DZD-P-39" style="edgeStyle=orthogonalEdgeStyle;rounded=0;orthogonalLoop=1;jettySize=auto;html=1;exitX=0;exitY=0.5;exitDx=0;exitDy=0;entryX=1;entryY=0.5;entryDx=0;entryDy=0;" parent="1" source="LpNbH-FBe_Z-OM0DZD-P-1" target="LpNbH-FBe_Z-OM0DZD-P-12" edge="1">
          <mxGeometry relative="1" as="geometry">
            <Array as="points">
              <mxPoint x="120" y="360" />
              <mxPoint x="120" y="410" />
            </Array>
          </mxGeometry>
        </mxCell>
        <mxCell id="LpNbH-FBe_Z-OM0DZD-P-67" style="edgeStyle=orthogonalEdgeStyle;rounded=0;orthogonalLoop=1;jettySize=auto;html=1;exitX=0.5;exitY=1;exitDx=0;exitDy=0;entryX=0.5;entryY=0;entryDx=0;entryDy=0;" parent="1" source="LpNbH-FBe_Z-OM0DZD-P-1" target="LpNbH-FBe_Z-OM0DZD-P-60" edge="1">
          <mxGeometry relative="1" as="geometry" />
        </mxCell>
        <mxCell id="LpNbH-FBe_Z-OM0DZD-P-69" style="edgeStyle=orthogonalEdgeStyle;rounded=0;orthogonalLoop=1;jettySize=auto;html=1;exitX=1;exitY=0.5;exitDx=0;exitDy=0;entryX=0;entryY=0.5;entryDx=0;entryDy=0;" parent="1" source="LpNbH-FBe_Z-OM0DZD-P-1" target="LpNbH-FBe_Z-OM0DZD-P-62" edge="1">
          <mxGeometry relative="1" as="geometry" />
        </mxCell>
        <mxCell id="kJ3Fy41bbqwlwOkuJRb0-36" style="edgeStyle=none;curved=1;rounded=0;orthogonalLoop=1;jettySize=auto;html=1;exitX=0.5;exitY=0;exitDx=0;exitDy=0;entryX=0.5;entryY=1;entryDx=0;entryDy=0;fontSize=12;startSize=8;endSize=8;" edge="1" parent="1" source="LpNbH-FBe_Z-OM0DZD-P-1" target="kJ3Fy41bbqwlwOkuJRb0-35">
          <mxGeometry relative="1" as="geometry" />
        </mxCell>
        <mxCell id="LpNbH-FBe_Z-OM0DZD-P-1" value="Cliente" style="rounded=0;whiteSpace=wrap;html=1;" parent="1" vertex="1">
          <mxGeometry x="140" y="340" width="80" height="40" as="geometry" />
        </mxCell>
        <mxCell id="LpNbH-FBe_Z-OM0DZD-P-51" style="edgeStyle=orthogonalEdgeStyle;rounded=0;orthogonalLoop=1;jettySize=auto;html=1;exitX=1;exitY=0.5;exitDx=0;exitDy=0;entryX=0;entryY=0.5;entryDx=0;entryDy=0;" parent="1" source="LpNbH-FBe_Z-OM0DZD-P-2" target="LpNbH-FBe_Z-OM0DZD-P-26" edge="1">
          <mxGeometry relative="1" as="geometry" />
        </mxCell>
        <mxCell id="LpNbH-FBe_Z-OM0DZD-P-52" style="edgeStyle=orthogonalEdgeStyle;rounded=0;orthogonalLoop=1;jettySize=auto;html=1;exitX=1;exitY=0.5;exitDx=0;exitDy=0;entryX=0;entryY=0.5;entryDx=0;entryDy=0;" parent="1" source="LpNbH-FBe_Z-OM0DZD-P-2" target="LpNbH-FBe_Z-OM0DZD-P-29" edge="1">
          <mxGeometry relative="1" as="geometry" />
        </mxCell>
        <mxCell id="LpNbH-FBe_Z-OM0DZD-P-53" style="edgeStyle=orthogonalEdgeStyle;rounded=0;orthogonalLoop=1;jettySize=auto;html=1;exitX=1;exitY=0.5;exitDx=0;exitDy=0;entryX=0;entryY=0.5;entryDx=0;entryDy=0;" parent="1" source="LpNbH-FBe_Z-OM0DZD-P-2" target="LpNbH-FBe_Z-OM0DZD-P-27" edge="1">
          <mxGeometry relative="1" as="geometry" />
        </mxCell>
        <mxCell id="LpNbH-FBe_Z-OM0DZD-P-54" style="edgeStyle=orthogonalEdgeStyle;rounded=0;orthogonalLoop=1;jettySize=auto;html=1;exitX=1;exitY=0.5;exitDx=0;exitDy=0;entryX=0;entryY=0.5;entryDx=0;entryDy=0;" parent="1" source="LpNbH-FBe_Z-OM0DZD-P-2" target="LpNbH-FBe_Z-OM0DZD-P-28" edge="1">
          <mxGeometry relative="1" as="geometry" />
        </mxCell>
        <mxCell id="LpNbH-FBe_Z-OM0DZD-P-55" style="edgeStyle=orthogonalEdgeStyle;rounded=0;orthogonalLoop=1;jettySize=auto;html=1;exitX=1;exitY=0.5;exitDx=0;exitDy=0;entryX=0;entryY=0.5;entryDx=0;entryDy=0;" parent="1" source="LpNbH-FBe_Z-OM0DZD-P-2" target="LpNbH-FBe_Z-OM0DZD-P-23" edge="1">
          <mxGeometry relative="1" as="geometry">
            <mxPoint x="730" y="360" as="targetPoint" />
          </mxGeometry>
        </mxCell>
        <mxCell id="LpNbH-FBe_Z-OM0DZD-P-73" style="edgeStyle=orthogonalEdgeStyle;rounded=0;orthogonalLoop=1;jettySize=auto;html=1;exitX=0.5;exitY=1;exitDx=0;exitDy=0;entryX=0.5;entryY=0;entryDx=0;entryDy=0;" parent="1" source="LpNbH-FBe_Z-OM0DZD-P-2" target="LpNbH-FBe_Z-OM0DZD-P-64" edge="1">
          <mxGeometry relative="1" as="geometry" />
        </mxCell>
        <mxCell id="kJ3Fy41bbqwlwOkuJRb0-19" style="edgeStyle=none;curved=1;rounded=0;orthogonalLoop=1;jettySize=auto;html=1;exitX=0.5;exitY=0;exitDx=0;exitDy=0;entryX=0;entryY=1;entryDx=0;entryDy=0;fontSize=12;startSize=8;endSize=8;" edge="1" parent="1" source="LpNbH-FBe_Z-OM0DZD-P-2" target="kJ3Fy41bbqwlwOkuJRb0-16">
          <mxGeometry relative="1" as="geometry" />
        </mxCell>
        <mxCell id="kJ3Fy41bbqwlwOkuJRb0-21" style="edgeStyle=none;curved=1;rounded=0;orthogonalLoop=1;jettySize=auto;html=1;exitX=0.5;exitY=0;exitDx=0;exitDy=0;entryX=0.5;entryY=1;entryDx=0;entryDy=0;fontSize=12;startSize=8;endSize=8;" edge="1" parent="1" source="LpNbH-FBe_Z-OM0DZD-P-2" target="kJ3Fy41bbqwlwOkuJRb0-15">
          <mxGeometry relative="1" as="geometry" />
        </mxCell>
        <mxCell id="kJ3Fy41bbqwlwOkuJRb0-42" style="edgeStyle=none;curved=1;rounded=0;orthogonalLoop=1;jettySize=auto;html=1;exitX=0.75;exitY=1;exitDx=0;exitDy=0;entryX=0;entryY=0;entryDx=0;entryDy=0;fontSize=12;startSize=8;endSize=8;" edge="1" parent="1" source="LpNbH-FBe_Z-OM0DZD-P-2" target="kJ3Fy41bbqwlwOkuJRb0-41">
          <mxGeometry relative="1" as="geometry" />
        </mxCell>
        <mxCell id="LpNbH-FBe_Z-OM0DZD-P-2" value="Producto" style="rounded=0;whiteSpace=wrap;html=1;" parent="1" vertex="1">
          <mxGeometry x="610" y="340" width="80" height="40" as="geometry" />
        </mxCell>
        <mxCell id="LpNbH-FBe_Z-OM0DZD-P-56" style="edgeStyle=orthogonalEdgeStyle;rounded=0;orthogonalLoop=1;jettySize=auto;html=1;exitX=0.5;exitY=0;exitDx=0;exitDy=0;entryX=0.5;entryY=1;entryDx=0;entryDy=0;" parent="1" source="LpNbH-FBe_Z-OM0DZD-P-3" target="LpNbH-FBe_Z-OM0DZD-P-20" edge="1">
          <mxGeometry relative="1" as="geometry" />
        </mxCell>
        <mxCell id="LpNbH-FBe_Z-OM0DZD-P-57" style="edgeStyle=orthogonalEdgeStyle;rounded=0;orthogonalLoop=1;jettySize=auto;html=1;exitX=0.5;exitY=0;exitDx=0;exitDy=0;entryX=0.5;entryY=1;entryDx=0;entryDy=0;" parent="1" source="LpNbH-FBe_Z-OM0DZD-P-3" target="LpNbH-FBe_Z-OM0DZD-P-22" edge="1">
          <mxGeometry relative="1" as="geometry" />
        </mxCell>
        <mxCell id="LpNbH-FBe_Z-OM0DZD-P-58" style="edgeStyle=orthogonalEdgeStyle;rounded=0;orthogonalLoop=1;jettySize=auto;html=1;exitX=0.5;exitY=0;exitDx=0;exitDy=0;entryX=0.5;entryY=1;entryDx=0;entryDy=0;" parent="1" source="LpNbH-FBe_Z-OM0DZD-P-3" target="LpNbH-FBe_Z-OM0DZD-P-21" edge="1">
          <mxGeometry relative="1" as="geometry" />
        </mxCell>
        <mxCell id="LpNbH-FBe_Z-OM0DZD-P-71" style="edgeStyle=orthogonalEdgeStyle;rounded=0;orthogonalLoop=1;jettySize=auto;html=1;exitX=1;exitY=0.5;exitDx=0;exitDy=0;entryX=0;entryY=0.5;entryDx=0;entryDy=0;" parent="1" source="LpNbH-FBe_Z-OM0DZD-P-3" target="LpNbH-FBe_Z-OM0DZD-P-63" edge="1">
          <mxGeometry relative="1" as="geometry" />
        </mxCell>
        <mxCell id="kJ3Fy41bbqwlwOkuJRb0-5" style="edgeStyle=none;curved=1;rounded=0;orthogonalLoop=1;jettySize=auto;html=1;fontSize=12;startSize=8;endSize=8;" edge="1" parent="1" source="LpNbH-FBe_Z-OM0DZD-P-3" target="kJ3Fy41bbqwlwOkuJRb0-3">
          <mxGeometry relative="1" as="geometry">
            <Array as="points">
              <mxPoint x="380" y="310" />
            </Array>
          </mxGeometry>
        </mxCell>
        <mxCell id="kJ3Fy41bbqwlwOkuJRb0-33" style="edgeStyle=none;curved=1;rounded=0;orthogonalLoop=1;jettySize=auto;html=1;exitX=0.5;exitY=1;exitDx=0;exitDy=0;entryX=0.5;entryY=0;entryDx=0;entryDy=0;fontSize=12;startSize=8;endSize=8;" edge="1" parent="1" source="LpNbH-FBe_Z-OM0DZD-P-3" target="kJ3Fy41bbqwlwOkuJRb0-32">
          <mxGeometry relative="1" as="geometry" />
        </mxCell>
        <mxCell id="LpNbH-FBe_Z-OM0DZD-P-3" value="Pedido" style="rounded=0;whiteSpace=wrap;html=1;" parent="1" vertex="1">
          <mxGeometry x="384" y="340" width="80" height="40" as="geometry" />
        </mxCell>
        <mxCell id="LpNbH-FBe_Z-OM0DZD-P-41" style="edgeStyle=orthogonalEdgeStyle;rounded=0;orthogonalLoop=1;jettySize=auto;html=1;exitX=0.5;exitY=1;exitDx=0;exitDy=0;entryX=0.5;entryY=0;entryDx=0;entryDy=0;" parent="1" source="LpNbH-FBe_Z-OM0DZD-P-4" target="LpNbH-FBe_Z-OM0DZD-P-18" edge="1">
          <mxGeometry relative="1" as="geometry" />
        </mxCell>
        <mxCell id="LpNbH-FBe_Z-OM0DZD-P-42" style="edgeStyle=orthogonalEdgeStyle;rounded=0;orthogonalLoop=1;jettySize=auto;html=1;exitX=0.5;exitY=1;exitDx=0;exitDy=0;entryX=0.5;entryY=0;entryDx=0;entryDy=0;" parent="1" source="LpNbH-FBe_Z-OM0DZD-P-4" target="LpNbH-FBe_Z-OM0DZD-P-16" edge="1">
          <mxGeometry relative="1" as="geometry" />
        </mxCell>
        <mxCell id="LpNbH-FBe_Z-OM0DZD-P-43" style="edgeStyle=orthogonalEdgeStyle;rounded=0;orthogonalLoop=1;jettySize=auto;html=1;exitX=0.5;exitY=1;exitDx=0;exitDy=0;" parent="1" source="LpNbH-FBe_Z-OM0DZD-P-4" target="LpNbH-FBe_Z-OM0DZD-P-14" edge="1">
          <mxGeometry relative="1" as="geometry" />
        </mxCell>
        <mxCell id="LpNbH-FBe_Z-OM0DZD-P-44" style="edgeStyle=orthogonalEdgeStyle;rounded=0;orthogonalLoop=1;jettySize=auto;html=1;exitX=0.5;exitY=1;exitDx=0;exitDy=0;" parent="1" source="LpNbH-FBe_Z-OM0DZD-P-4" target="LpNbH-FBe_Z-OM0DZD-P-19" edge="1">
          <mxGeometry relative="1" as="geometry" />
        </mxCell>
        <mxCell id="kJ3Fy41bbqwlwOkuJRb0-50" style="edgeStyle=none;curved=1;rounded=0;orthogonalLoop=1;jettySize=auto;html=1;exitX=0;exitY=0.5;exitDx=0;exitDy=0;entryX=1;entryY=0.5;entryDx=0;entryDy=0;fontSize=12;startSize=8;endSize=8;" edge="1" parent="1" source="LpNbH-FBe_Z-OM0DZD-P-4" target="kJ3Fy41bbqwlwOkuJRb0-44">
          <mxGeometry relative="1" as="geometry" />
        </mxCell>
        <mxCell id="LpNbH-FBe_Z-OM0DZD-P-4" value="Direccion" style="rounded=0;whiteSpace=wrap;html=1;" parent="1" vertex="1">
          <mxGeometry x="140" y="600" width="80" height="40" as="geometry" />
        </mxCell>
        <UserObject label="&lt;b&gt;&lt;font style=&quot;font-size: 36px;&quot;&gt;Tienda en linea&lt;/font&gt;&lt;/b&gt;" id="LpNbH-FBe_Z-OM0DZD-P-6">
          <mxCell style="text;whiteSpace=wrap;html=1;" parent="1" vertex="1">
            <mxGeometry x="225" y="90" width="280" height="40" as="geometry" />
          </mxCell>
        </UserObject>
        <mxCell id="LpNbH-FBe_Z-OM0DZD-P-47" style="edgeStyle=orthogonalEdgeStyle;rounded=0;orthogonalLoop=1;jettySize=auto;html=1;exitX=0.5;exitY=1;exitDx=0;exitDy=0;entryX=0.5;entryY=0;entryDx=0;entryDy=0;" parent="1" source="LpNbH-FBe_Z-OM0DZD-P-7" target="LpNbH-FBe_Z-OM0DZD-P-30" edge="1">
          <mxGeometry relative="1" as="geometry" />
        </mxCell>
        <mxCell id="LpNbH-FBe_Z-OM0DZD-P-48" style="edgeStyle=orthogonalEdgeStyle;rounded=0;orthogonalLoop=1;jettySize=auto;html=1;exitX=0.5;exitY=1;exitDx=0;exitDy=0;entryX=0.5;entryY=0;entryDx=0;entryDy=0;" parent="1" source="LpNbH-FBe_Z-OM0DZD-P-7" target="LpNbH-FBe_Z-OM0DZD-P-31" edge="1">
          <mxGeometry relative="1" as="geometry" />
        </mxCell>
        <mxCell id="LpNbH-FBe_Z-OM0DZD-P-49" style="edgeStyle=orthogonalEdgeStyle;rounded=0;orthogonalLoop=1;jettySize=auto;html=1;exitX=0.5;exitY=1;exitDx=0;exitDy=0;entryX=0.5;entryY=0;entryDx=0;entryDy=0;" parent="1" source="LpNbH-FBe_Z-OM0DZD-P-7" target="LpNbH-FBe_Z-OM0DZD-P-32" edge="1">
          <mxGeometry relative="1" as="geometry" />
        </mxCell>
        <mxCell id="LpNbH-FBe_Z-OM0DZD-P-7" value="Categoria" style="rounded=0;whiteSpace=wrap;html=1;" parent="1" vertex="1">
          <mxGeometry x="610" y="600" width="80" height="40" as="geometry" />
        </mxCell>
        <mxCell id="LpNbH-FBe_Z-OM0DZD-P-8" value="Nombre" style="ellipse;whiteSpace=wrap;html=1;" parent="1" vertex="1">
          <mxGeometry x="10" y="240" width="90" height="40" as="geometry" />
        </mxCell>
        <mxCell id="LpNbH-FBe_Z-OM0DZD-P-9" value="&lt;u&gt;ID_Cliente&lt;/u&gt;" style="ellipse;whiteSpace=wrap;html=1;" parent="1" vertex="1">
          <mxGeometry x="10" y="440" width="90" height="40" as="geometry" />
        </mxCell>
        <mxCell id="LpNbH-FBe_Z-OM0DZD-P-10" value="Apellido" style="ellipse;whiteSpace=wrap;html=1;" parent="1" vertex="1">
          <mxGeometry x="20" y="290" width="80" height="40" as="geometry" />
        </mxCell>
        <mxCell id="LpNbH-FBe_Z-OM0DZD-P-11" value="Correo_Electronico" style="ellipse;whiteSpace=wrap;html=1;" parent="1" vertex="1">
          <mxGeometry y="340" width="110" height="40" as="geometry" />
        </mxCell>
        <mxCell id="LpNbH-FBe_Z-OM0DZD-P-12" value="Telefono" style="ellipse;whiteSpace=wrap;html=1;" parent="1" vertex="1">
          <mxGeometry x="15" y="390" width="80" height="40" as="geometry" />
        </mxCell>
        <mxCell id="LpNbH-FBe_Z-OM0DZD-P-14" value="&lt;u&gt;ID_Direccion&lt;/u&gt;" style="ellipse;whiteSpace=wrap;html=1;" parent="1" vertex="1">
          <mxGeometry x="135" y="710" width="90" height="40" as="geometry" />
        </mxCell>
        <mxCell id="LpNbH-FBe_Z-OM0DZD-P-16" value="Calle" style="ellipse;whiteSpace=wrap;html=1;" parent="1" vertex="1">
          <mxGeometry x="190" y="770" width="90" height="40" as="geometry" />
        </mxCell>
        <mxCell id="LpNbH-FBe_Z-OM0DZD-P-18" value="Codigo Postal" style="ellipse;whiteSpace=wrap;html=1;" parent="1" vertex="1">
          <mxGeometry x="80" y="770" width="90" height="40" as="geometry" />
        </mxCell>
        <mxCell id="LpNbH-FBe_Z-OM0DZD-P-19" value="Numero" style="ellipse;whiteSpace=wrap;html=1;" parent="1" vertex="1">
          <mxGeometry x="30" y="710" width="90" height="40" as="geometry" />
        </mxCell>
        <mxCell id="LpNbH-FBe_Z-OM0DZD-P-20" value="&lt;u&gt;ID_Pedido&lt;/u&gt;" style="ellipse;whiteSpace=wrap;html=1;" parent="1" vertex="1">
          <mxGeometry x="280" y="250" width="90" height="40" as="geometry" />
        </mxCell>
        <mxCell id="LpNbH-FBe_Z-OM0DZD-P-21" value="Fecha" style="ellipse;whiteSpace=wrap;html=1;" parent="1" vertex="1">
          <mxGeometry x="379" y="250" width="90" height="40" as="geometry" />
        </mxCell>
        <mxCell id="LpNbH-FBe_Z-OM0DZD-P-22" value="Monto" style="ellipse;whiteSpace=wrap;html=1;" parent="1" vertex="1">
          <mxGeometry x="480" y="250" width="90" height="40" as="geometry" />
        </mxCell>
        <mxCell id="LpNbH-FBe_Z-OM0DZD-P-23" value="&lt;u&gt;ID_Producto&lt;/u&gt;" style="ellipse;whiteSpace=wrap;html=1;" parent="1" vertex="1">
          <mxGeometry x="737" y="340" width="90" height="40" as="geometry" />
        </mxCell>
        <mxCell id="LpNbH-FBe_Z-OM0DZD-P-26" value="Nombre" style="ellipse;whiteSpace=wrap;html=1;" parent="1" vertex="1">
          <mxGeometry x="737" y="240" width="90" height="40" as="geometry" />
        </mxCell>
        <mxCell id="LpNbH-FBe_Z-OM0DZD-P-27" value="Descripcion" style="ellipse;whiteSpace=wrap;html=1;" parent="1" vertex="1">
          <mxGeometry x="737" y="290" width="90" height="40" as="geometry" />
        </mxCell>
        <mxCell id="LpNbH-FBe_Z-OM0DZD-P-28" value="Precio" style="ellipse;whiteSpace=wrap;html=1;" parent="1" vertex="1">
          <mxGeometry x="737" y="390" width="90" height="40" as="geometry" />
        </mxCell>
        <mxCell id="LpNbH-FBe_Z-OM0DZD-P-29" value="Stock" style="ellipse;whiteSpace=wrap;html=1;" parent="1" vertex="1">
          <mxGeometry x="737" y="440" width="90" height="40" as="geometry" />
        </mxCell>
        <mxCell id="LpNbH-FBe_Z-OM0DZD-P-30" value="ID_Categoria" style="ellipse;whiteSpace=wrap;html=1;" parent="1" vertex="1">
          <mxGeometry x="500" y="730" width="90" height="40" as="geometry" />
        </mxCell>
        <mxCell id="LpNbH-FBe_Z-OM0DZD-P-31" value="Nombre" style="ellipse;whiteSpace=wrap;html=1;" parent="1" vertex="1">
          <mxGeometry x="710" y="730" width="90" height="40" as="geometry" />
        </mxCell>
        <mxCell id="LpNbH-FBe_Z-OM0DZD-P-32" value="Descripcion" style="ellipse;whiteSpace=wrap;html=1;" parent="1" vertex="1">
          <mxGeometry x="605" y="730" width="90" height="40" as="geometry" />
        </mxCell>
        <mxCell id="LpNbH-FBe_Z-OM0DZD-P-33" style="edgeStyle=orthogonalEdgeStyle;rounded=0;orthogonalLoop=1;jettySize=auto;html=1;exitX=0.5;exitY=1;exitDx=0;exitDy=0;" parent="1" source="LpNbH-FBe_Z-OM0DZD-P-16" target="LpNbH-FBe_Z-OM0DZD-P-16" edge="1">
          <mxGeometry relative="1" as="geometry" />
        </mxCell>
        <mxCell id="LpNbH-FBe_Z-OM0DZD-P-40" style="edgeStyle=orthogonalEdgeStyle;rounded=0;orthogonalLoop=1;jettySize=auto;html=1;exitX=0;exitY=0.5;exitDx=0;exitDy=0;entryX=1.034;entryY=0.494;entryDx=0;entryDy=0;entryPerimeter=0;" parent="1" source="LpNbH-FBe_Z-OM0DZD-P-1" target="LpNbH-FBe_Z-OM0DZD-P-11" edge="1">
          <mxGeometry relative="1" as="geometry" />
        </mxCell>
        <mxCell id="LpNbH-FBe_Z-OM0DZD-P-66" style="edgeStyle=orthogonalEdgeStyle;rounded=0;orthogonalLoop=1;jettySize=auto;html=1;exitX=0.5;exitY=1;exitDx=0;exitDy=0;entryX=0.5;entryY=0;entryDx=0;entryDy=0;" parent="1" source="LpNbH-FBe_Z-OM0DZD-P-60" target="LpNbH-FBe_Z-OM0DZD-P-4" edge="1">
          <mxGeometry relative="1" as="geometry" />
        </mxCell>
        <mxCell id="LpNbH-FBe_Z-OM0DZD-P-60" value="Tiene" style="rhombus;whiteSpace=wrap;html=1;" parent="1" vertex="1">
          <mxGeometry x="140" y="480" width="80" height="45" as="geometry" />
        </mxCell>
        <mxCell id="LpNbH-FBe_Z-OM0DZD-P-68" style="edgeStyle=orthogonalEdgeStyle;rounded=0;orthogonalLoop=1;jettySize=auto;html=1;exitX=0;exitY=0.5;exitDx=0;exitDy=0;" parent="1" source="LpNbH-FBe_Z-OM0DZD-P-62" edge="1">
          <mxGeometry relative="1" as="geometry">
            <mxPoint x="269.8965517241379" y="362.51724137931035" as="targetPoint" />
          </mxGeometry>
        </mxCell>
        <mxCell id="LpNbH-FBe_Z-OM0DZD-P-70" style="edgeStyle=orthogonalEdgeStyle;rounded=0;orthogonalLoop=1;jettySize=auto;html=1;exitX=1;exitY=0.5;exitDx=0;exitDy=0;entryX=0;entryY=0.5;entryDx=0;entryDy=0;" parent="1" source="LpNbH-FBe_Z-OM0DZD-P-62" target="LpNbH-FBe_Z-OM0DZD-P-3" edge="1">
          <mxGeometry relative="1" as="geometry" />
        </mxCell>
        <mxCell id="LpNbH-FBe_Z-OM0DZD-P-62" value="Realiza" style="rhombus;whiteSpace=wrap;html=1;" parent="1" vertex="1">
          <mxGeometry x="270" y="337.5" width="80" height="45" as="geometry" />
        </mxCell>
        <mxCell id="LpNbH-FBe_Z-OM0DZD-P-72" style="edgeStyle=orthogonalEdgeStyle;rounded=0;orthogonalLoop=1;jettySize=auto;html=1;exitX=1;exitY=0.5;exitDx=0;exitDy=0;" parent="1" source="LpNbH-FBe_Z-OM0DZD-P-63" target="LpNbH-FBe_Z-OM0DZD-P-2" edge="1">
          <mxGeometry relative="1" as="geometry" />
        </mxCell>
        <mxCell id="LpNbH-FBe_Z-OM0DZD-P-63" value="Tiene" style="rhombus;whiteSpace=wrap;html=1;" parent="1" vertex="1">
          <mxGeometry x="500" y="337.5" width="80" height="45" as="geometry" />
        </mxCell>
        <mxCell id="LpNbH-FBe_Z-OM0DZD-P-64" value="Pertenece" style="rhombus;whiteSpace=wrap;html=1;" parent="1" vertex="1">
          <mxGeometry x="610" y="480" width="80" height="45" as="geometry" />
        </mxCell>
        <mxCell id="LpNbH-FBe_Z-OM0DZD-P-74" style="edgeStyle=orthogonalEdgeStyle;rounded=0;orthogonalLoop=1;jettySize=auto;html=1;exitX=0.5;exitY=1;exitDx=0;exitDy=0;entryX=0.49;entryY=-0.109;entryDx=0;entryDy=0;entryPerimeter=0;" parent="1" source="LpNbH-FBe_Z-OM0DZD-P-64" target="LpNbH-FBe_Z-OM0DZD-P-7" edge="1">
          <mxGeometry relative="1" as="geometry" />
        </mxCell>
        <mxCell id="kJ3Fy41bbqwlwOkuJRb0-13" style="edgeStyle=none;curved=1;rounded=0;orthogonalLoop=1;jettySize=auto;html=1;exitX=0.5;exitY=0;exitDx=0;exitDy=0;entryX=0.5;entryY=1;entryDx=0;entryDy=0;fontSize=12;startSize=8;endSize=8;" edge="1" parent="1" source="kJ3Fy41bbqwlwOkuJRb0-1" target="kJ3Fy41bbqwlwOkuJRb0-7">
          <mxGeometry relative="1" as="geometry" />
        </mxCell>
        <mxCell id="kJ3Fy41bbqwlwOkuJRb0-14" style="edgeStyle=none;curved=1;rounded=0;orthogonalLoop=1;jettySize=auto;html=1;exitX=0.5;exitY=0;exitDx=0;exitDy=0;entryX=0.5;entryY=1;entryDx=0;entryDy=0;fontSize=12;startSize=8;endSize=8;" edge="1" parent="1" source="kJ3Fy41bbqwlwOkuJRb0-1" target="kJ3Fy41bbqwlwOkuJRb0-12">
          <mxGeometry relative="1" as="geometry" />
        </mxCell>
        <mxCell id="kJ3Fy41bbqwlwOkuJRb0-1" value="Categoria" style="rounded=0;whiteSpace=wrap;html=1;" vertex="1" parent="1">
          <mxGeometry x="600" y="80" width="80" height="40" as="geometry" />
        </mxCell>
        <mxCell id="kJ3Fy41bbqwlwOkuJRb0-3" value="Fecha Venta" style="ellipse;whiteSpace=wrap;html=1;" vertex="1" parent="1">
          <mxGeometry x="310" y="190" width="90" height="40" as="geometry" />
        </mxCell>
        <mxCell id="kJ3Fy41bbqwlwOkuJRb0-4" value="Estado_Actual" style="ellipse;whiteSpace=wrap;html=1;" vertex="1" parent="1">
          <mxGeometry x="289" y="590" width="90" height="40" as="geometry" />
        </mxCell>
        <mxCell id="kJ3Fy41bbqwlwOkuJRb0-10" style="edgeStyle=none;curved=1;rounded=0;orthogonalLoop=1;jettySize=auto;html=1;exitX=1;exitY=0.5;exitDx=0;exitDy=0;entryX=0;entryY=0.5;entryDx=0;entryDy=0;fontSize=12;startSize=8;endSize=8;" edge="1" parent="1" source="kJ3Fy41bbqwlwOkuJRb0-6" target="kJ3Fy41bbqwlwOkuJRb0-9">
          <mxGeometry relative="1" as="geometry" />
        </mxCell>
        <mxCell id="kJ3Fy41bbqwlwOkuJRb0-11" style="edgeStyle=none;curved=1;rounded=0;orthogonalLoop=1;jettySize=auto;html=1;exitX=1;exitY=0.25;exitDx=0;exitDy=0;entryX=0;entryY=0.5;entryDx=0;entryDy=0;fontSize=12;startSize=8;endSize=8;" edge="1" parent="1" source="kJ3Fy41bbqwlwOkuJRb0-6" target="kJ3Fy41bbqwlwOkuJRb0-8">
          <mxGeometry relative="1" as="geometry" />
        </mxCell>
        <mxCell id="kJ3Fy41bbqwlwOkuJRb0-6" value="Marca" style="rounded=0;whiteSpace=wrap;html=1;" vertex="1" parent="1">
          <mxGeometry x="742" y="80" width="80" height="40" as="geometry" />
        </mxCell>
        <mxCell id="kJ3Fy41bbqwlwOkuJRb0-7" value="&lt;u&gt;ID_Categoria&lt;/u&gt;" style="ellipse;whiteSpace=wrap;html=1;" vertex="1" parent="1">
          <mxGeometry x="550" y="10" width="90" height="40" as="geometry" />
        </mxCell>
        <mxCell id="kJ3Fy41bbqwlwOkuJRb0-8" value="&lt;u&gt;ID_Marca&lt;/u&gt;" style="ellipse;whiteSpace=wrap;html=1;" vertex="1" parent="1">
          <mxGeometry x="850" y="50" width="90" height="40" as="geometry" />
        </mxCell>
        <mxCell id="kJ3Fy41bbqwlwOkuJRb0-9" value="Nombre" style="ellipse;whiteSpace=wrap;html=1;" vertex="1" parent="1">
          <mxGeometry x="850" y="110" width="90" height="40" as="geometry" />
        </mxCell>
        <mxCell id="kJ3Fy41bbqwlwOkuJRb0-12" value="Nombre" style="ellipse;whiteSpace=wrap;html=1;" vertex="1" parent="1">
          <mxGeometry x="647" y="10" width="90" height="40" as="geometry" />
        </mxCell>
        <mxCell id="kJ3Fy41bbqwlwOkuJRb0-22" style="edgeStyle=none;curved=1;rounded=0;orthogonalLoop=1;jettySize=auto;html=1;exitX=0.5;exitY=0;exitDx=0;exitDy=0;entryX=0.5;entryY=1;entryDx=0;entryDy=0;fontSize=12;startSize=8;endSize=8;" edge="1" parent="1" source="kJ3Fy41bbqwlwOkuJRb0-15" target="kJ3Fy41bbqwlwOkuJRb0-1">
          <mxGeometry relative="1" as="geometry" />
        </mxCell>
        <mxCell id="kJ3Fy41bbqwlwOkuJRb0-15" value="Tiene" style="rhombus;whiteSpace=wrap;html=1;" vertex="1" parent="1">
          <mxGeometry x="580" y="185" width="80" height="45" as="geometry" />
        </mxCell>
        <mxCell id="kJ3Fy41bbqwlwOkuJRb0-20" style="edgeStyle=none;curved=1;rounded=0;orthogonalLoop=1;jettySize=auto;html=1;exitX=1;exitY=0;exitDx=0;exitDy=0;entryX=0.5;entryY=1;entryDx=0;entryDy=0;fontSize=12;startSize=8;endSize=8;" edge="1" parent="1" source="kJ3Fy41bbqwlwOkuJRb0-16" target="kJ3Fy41bbqwlwOkuJRb0-6">
          <mxGeometry relative="1" as="geometry" />
        </mxCell>
        <mxCell id="kJ3Fy41bbqwlwOkuJRb0-16" value="Tiene" style="rhombus;whiteSpace=wrap;html=1;" vertex="1" parent="1">
          <mxGeometry x="695" y="180" width="80" height="45" as="geometry" />
        </mxCell>
        <mxCell id="kJ3Fy41bbqwlwOkuJRb0-23" value="Color" style="ellipse;whiteSpace=wrap;html=1;" vertex="1" parent="1">
          <mxGeometry x="920" y="590" width="90" height="40" as="geometry" />
        </mxCell>
        <mxCell id="kJ3Fy41bbqwlwOkuJRb0-30" style="edgeStyle=none;curved=1;rounded=0;orthogonalLoop=1;jettySize=auto;html=1;exitX=0.5;exitY=1;exitDx=0;exitDy=0;entryX=0.5;entryY=0;entryDx=0;entryDy=0;fontSize=12;startSize=8;endSize=8;" edge="1" parent="1" source="kJ3Fy41bbqwlwOkuJRb0-26" target="kJ3Fy41bbqwlwOkuJRb0-27">
          <mxGeometry relative="1" as="geometry" />
        </mxCell>
        <mxCell id="kJ3Fy41bbqwlwOkuJRb0-26" value="Estado_Actual" style="rounded=0;whiteSpace=wrap;html=1;" vertex="1" parent="1">
          <mxGeometry x="350" y="520" width="80" height="40" as="geometry" />
        </mxCell>
        <mxCell id="kJ3Fy41bbqwlwOkuJRb0-27" value="&lt;u&gt;ID_Estado_Actual&lt;/u&gt;" style="ellipse;whiteSpace=wrap;html=1;" vertex="1" parent="1">
          <mxGeometry x="390" y="585" width="110" height="40" as="geometry" />
        </mxCell>
        <mxCell id="kJ3Fy41bbqwlwOkuJRb0-29" style="edgeStyle=none;curved=1;rounded=0;orthogonalLoop=1;jettySize=auto;html=1;exitX=0.5;exitY=1;exitDx=0;exitDy=0;entryX=0.589;entryY=-0.05;entryDx=0;entryDy=0;entryPerimeter=0;fontSize=12;startSize=8;endSize=8;" edge="1" parent="1" source="kJ3Fy41bbqwlwOkuJRb0-26" target="kJ3Fy41bbqwlwOkuJRb0-4">
          <mxGeometry relative="1" as="geometry" />
        </mxCell>
        <mxCell id="kJ3Fy41bbqwlwOkuJRb0-34" style="edgeStyle=none;curved=1;rounded=0;orthogonalLoop=1;jettySize=auto;html=1;exitX=0.5;exitY=1;exitDx=0;exitDy=0;entryX=0.5;entryY=0;entryDx=0;entryDy=0;fontSize=12;startSize=8;endSize=8;" edge="1" parent="1" source="kJ3Fy41bbqwlwOkuJRb0-32" target="kJ3Fy41bbqwlwOkuJRb0-26">
          <mxGeometry relative="1" as="geometry" />
        </mxCell>
        <mxCell id="kJ3Fy41bbqwlwOkuJRb0-32" value="Tiene" style="rhombus;whiteSpace=wrap;html=1;" vertex="1" parent="1">
          <mxGeometry x="350" y="435" width="80" height="45" as="geometry" />
        </mxCell>
        <mxCell id="kJ3Fy41bbqwlwOkuJRb0-35" value="Genero" style="ellipse;whiteSpace=wrap;html=1;" vertex="1" parent="1">
          <mxGeometry x="135" y="270" width="90" height="40" as="geometry" />
        </mxCell>
        <mxCell id="kJ3Fy41bbqwlwOkuJRb0-39" style="edgeStyle=none;curved=1;rounded=0;orthogonalLoop=1;jettySize=auto;html=1;exitX=1;exitY=0.25;exitDx=0;exitDy=0;fontSize=12;startSize=8;endSize=8;" edge="1" parent="1" source="kJ3Fy41bbqwlwOkuJRb0-37" target="kJ3Fy41bbqwlwOkuJRb0-38">
          <mxGeometry relative="1" as="geometry" />
        </mxCell>
        <mxCell id="kJ3Fy41bbqwlwOkuJRb0-40" style="edgeStyle=none;curved=1;rounded=0;orthogonalLoop=1;jettySize=auto;html=1;exitX=1;exitY=0.5;exitDx=0;exitDy=0;fontSize=12;startSize=8;endSize=8;" edge="1" parent="1" source="kJ3Fy41bbqwlwOkuJRb0-37" target="kJ3Fy41bbqwlwOkuJRb0-23">
          <mxGeometry relative="1" as="geometry" />
        </mxCell>
        <mxCell id="kJ3Fy41bbqwlwOkuJRb0-37" value="Color" style="rounded=0;whiteSpace=wrap;html=1;" vertex="1" parent="1">
          <mxGeometry x="810" y="550" width="80" height="40" as="geometry" />
        </mxCell>
        <mxCell id="kJ3Fy41bbqwlwOkuJRb0-38" value="&lt;u&gt;ID_Color&lt;/u&gt;" style="ellipse;whiteSpace=wrap;html=1;" vertex="1" parent="1">
          <mxGeometry x="920" y="540" width="90" height="40" as="geometry" />
        </mxCell>
        <mxCell id="kJ3Fy41bbqwlwOkuJRb0-41" value="Tiene" style="rhombus;whiteSpace=wrap;html=1;" vertex="1" parent="1">
          <mxGeometry x="720" y="515" width="80" height="45" as="geometry" />
        </mxCell>
        <mxCell id="kJ3Fy41bbqwlwOkuJRb0-51" style="edgeStyle=none;curved=1;rounded=0;orthogonalLoop=1;jettySize=auto;html=1;exitX=0;exitY=0.5;exitDx=0;exitDy=0;entryX=1;entryY=0.5;entryDx=0;entryDy=0;fontSize=12;startSize=8;endSize=8;" edge="1" parent="1" source="kJ3Fy41bbqwlwOkuJRb0-44" target="kJ3Fy41bbqwlwOkuJRb0-45">
          <mxGeometry relative="1" as="geometry" />
        </mxCell>
        <mxCell id="kJ3Fy41bbqwlwOkuJRb0-44" value="Tiene" style="rhombus;whiteSpace=wrap;html=1;" vertex="1" parent="1">
          <mxGeometry x="-80" y="600" width="80" height="45" as="geometry" />
        </mxCell>
        <mxCell id="kJ3Fy41bbqwlwOkuJRb0-48" style="edgeStyle=none;curved=1;rounded=0;orthogonalLoop=1;jettySize=auto;html=1;exitX=0.25;exitY=1;exitDx=0;exitDy=0;entryX=0.5;entryY=0;entryDx=0;entryDy=0;fontSize=12;startSize=8;endSize=8;" edge="1" parent="1" source="kJ3Fy41bbqwlwOkuJRb0-45" target="kJ3Fy41bbqwlwOkuJRb0-47">
          <mxGeometry relative="1" as="geometry" />
        </mxCell>
        <mxCell id="kJ3Fy41bbqwlwOkuJRb0-49" style="edgeStyle=none;curved=1;rounded=0;orthogonalLoop=1;jettySize=auto;html=1;exitX=0.5;exitY=1;exitDx=0;exitDy=0;entryX=0.5;entryY=0;entryDx=0;entryDy=0;fontSize=12;startSize=8;endSize=8;" edge="1" parent="1" source="kJ3Fy41bbqwlwOkuJRb0-45" target="kJ3Fy41bbqwlwOkuJRb0-46">
          <mxGeometry relative="1" as="geometry" />
        </mxCell>
        <mxCell id="kJ3Fy41bbqwlwOkuJRb0-45" value="Colonia" style="rounded=0;whiteSpace=wrap;html=1;" vertex="1" parent="1">
          <mxGeometry x="-260" y="620" width="80" height="40" as="geometry" />
        </mxCell>
        <mxCell id="kJ3Fy41bbqwlwOkuJRb0-46" value="Colonia" style="ellipse;whiteSpace=wrap;html=1;" vertex="1" parent="1">
          <mxGeometry x="-230" y="700" width="90" height="40" as="geometry" />
        </mxCell>
        <mxCell id="kJ3Fy41bbqwlwOkuJRb0-47" value="&lt;u&gt;ID_Colonia&lt;/u&gt;" style="ellipse;whiteSpace=wrap;html=1;" vertex="1" parent="1">
          <mxGeometry x="-350" y="700" width="90" height="40" as="geometry" />
        </mxCell>
      </root>
    </mxGraphModel>
  </diagram>
</mxfile>
